<?xml version="1.0" encoding="UTF-8"?>
<svg width="146.95mm" height="172.99mm" version="1.1" viewBox="0 0 146.95 172.99" xmlns="http://www.w3.org/2000/svg"><g transform="translate(-41.311 -95.971)"><path d="m87.236 219.24c-4.4704-5.089-6.8203-7.6609-7.9644-16.614-1.1441-8.9526 0.57644-12.012 2.5374-16.186 2.7983-5.9563 5.0214-7.8267 12.526-11.052 12.878-5.5347 35.508-5.9435 49.862-0.90069 12.335 4.3336 20.097 14.102 19.365 27.058-0.31034 5.4953-2.7023 11.173-7.6664 15.545-6.1616 1.5188-14.922 4.3855-33.972 4.4632-18.887 0.0769-25.676 0.31079-34.687-2.3148z" fill="#cbd8e1"/><path d="m104.55 217.28c-9.6422 0.0142-24.076-3.7143-23.312-18.45s4.9966-18.612 12.788-22.214c11.067-6.6137 36.105-6.5007 50.18-1.7397 10.878 3.6797 19.35 12.669 18.753 27.241-2.7328 11.665-7.6976 13.466-12.515 14.134-11.083 0.27703-10.113-0.73134-24.349-0.48297-14.236 0.24837-11.902 1.4977-21.545 1.512z" fill="#f9fbfb"/><g transform="matrix(1 0 0 1.1472 0 -28.272)"><path d="m110.62 188.15c0.15684-2.9515 3.2021-4.2394 7.1421-4.2818 5.1541 0.0297 6.8442 2.5543 6.7104 4.4662 0.0289 2.5563-3.4972 3.8255-7.4765 3.7203-4.0237-0.0229-6.2944-1.4086-6.376-3.9047z" fill="#cbd8e1"/><path d="m111.1 187.27c0.15554-2.9515 3.1757-4.2394 7.0832-4.2818 5.1116 0.0297 6.7877 2.5543 6.6551 4.4662 0.0286 2.5563-3.4683 3.8255-7.4149 3.7203-3.9905-0.0229-6.2425-1.4086-6.3235-3.9047z" fill="#0d1014"/><path d="m121.57 186.29c-0.58696-0.40468-0.93868-0.64639-2.0691-0.80657-1.1304-0.16017-3.5756 0.0176-3.8196-0.71609-0.2439-0.73368 0.80772-1.2475 2.3575-1.2166 1.5498 0.0308 2.3987 0.23966 3.4214 0.66829s1.5163 0.65618 2.019 1.4238c0.50263 0.76762 0.31454 1.167-0.33027 1.2574-0.64482 0.0904-1.2986-0.41741-1.579-0.61015z" fill="#4c5e76"/></g><g transform="matrix(.76661 0 0 1 28.828 0)"><path d="m109.2 199.57c0.15683-2.9515 3.2021-4.2394 7.1421-4.2818 5.1541 0.0297 6.8442 2.5543 6.7104 4.4662 0.0289 2.5563-3.4971 3.8255-7.4765 3.7203-4.0237-0.0229-6.2944-1.4086-6.376-3.9047z" fill="#cbd8e1"/><path d="m109.77 198.78c0.15554-2.9515 3.1757-4.2394 7.0832-4.2818 5.1116 0.0297 6.7877 2.5543 6.6551 4.4662 0.0286 2.5563-3.4683 3.8255-7.4149 3.7203-3.9905-0.0229-6.2425-1.4086-6.3235-3.9047z" fill="#0d1014"/><path d="m120.25 197.8c-0.58696-0.40468-0.93868-0.64639-2.0691-0.80657-1.1304-0.16017-3.5757 0.0176-3.8196-0.71609-0.2439-0.73368 0.80772-1.2475 2.3575-1.2166 1.5498 0.0308 2.3987 0.23966 3.4214 0.66829 1.0227 0.42863 1.5163 0.65618 2.019 1.4238s0.31454 1.167-0.33028 1.2574c-0.64481 0.0904-1.2986-0.41741-1.5789-0.61015z" fill="#4c5e76"/></g><g transform="matrix(.63104 0 0 1.3608 43.04 -73.986)"><path d="m109.77 209.3c0.15683-2.9515 3.2021-4.2394 7.1421-4.2818 5.1541 0.0297 6.8442 2.5543 6.7104 4.4662 0.0289 2.5563-3.4971 3.8255-7.4765 3.7203-4.0237-0.0229-6.2944-1.4086-6.376-3.9047z" fill="#cbd8e1"/><path d="m110.15 208.6c0.15554-2.9515 3.1757-4.2394 7.0832-4.2818 5.1116 0.0297 6.7877 2.5543 6.6551 4.4662 0.0286 2.5563-3.4683 3.8255-7.4149 3.7203-3.9905-0.0229-6.2425-1.4086-6.3235-3.9047z" fill="#0d1014"/><path d="m120.62 207.63c-0.58696-0.40468-0.93868-0.64639-2.0691-0.80657-1.1304-0.16017-3.5756 0.0176-3.8196-0.71609-0.2439-0.73368 0.80772-1.2475 2.3575-1.2166 1.5498 0.0308 2.3987 0.23966 3.4214 0.66829 1.0227 0.42863 1.5163 0.65618 2.019 1.4238s0.31454 1.167-0.33028 1.2574c-0.64481 0.0904-1.2986-0.41741-1.5789-0.61015z" fill="#4c5e76"/></g></g></svg>
