<?xml version="1.0" encoding="UTF-8"?>
<svg width="146.95mm" height="172.99mm" version="1.1" viewBox="0 0 146.95 172.99" xmlns="http://www.w3.org/2000/svg"><g transform="translate(-41.311 -95.971)"><path d="m100.62 131.78c2.7362-3.6184 2.2302-3.5583 2.2302-3.5583s27.351 0.29727 33.621-0.0539c1.9063 0.46239 1.2314 0.0639 3.0878 2.3732-11.52 2.9132-17.058 3.6497-26.712 3.0302-7.8447 0.30174-6.5344-0.12632-12.227-1.7911z" fill="#cbd8e1"/><path d="m95.93 125.87c-0.04899-4.0686 7.1913-4.1395 10.925-4.8392 0.3116-3.4729 0.22444-7.677-0.25131-12.022-0.47574-4.3455-2.582-9.4313-1.9901-10.084 0.59184-0.65256 8.8923-2.8686 15.318-2.9471 6.4256-0.07845 16.526 2.0437 17.033 3.0786 0.50705 1.0349-1.7023 6.165-2.2431 10.143-0.54081 3.9778-0.2515 7.7452 0.21519 11.632 2.3142 8e-3 10.428 0.34119 10.478 4.5518 0.0493 4.2106-14.066 5.2891-25.435 4.9801-11.369-0.30903-24-0.42349-24.049-4.4921z" fill="#211a39"/><path d="m120.17 96.459c-4.2648 0.07403-13.415 1.3779-13.72 2.8065-0.30462 1.4286 7.0962 0.48083 12.524 0.56069 1.4658 0.02156 3.3266 0.1218 5.2694 0.22738-1.225 3.7399 1.6852 7.7524 1.3658 11.681-0.32208 3.6237-2.6823 9.959-0.28473 14.172-0.78965 0.0794-1.6343 0.12282-2.5792 0.11575-4.9283-0.0369-8.6274-0.0683-11.239-0.76429-1.6089 0.50672-2.5904 1.4706-2.9239 2.4376 4.227 1.0272 11.739 0.0323 20.767 0.84749 9.0284 0.81522 14.694-1.7619 15.417-3.9977-0.93634-2.9116-9.1054-3.8071-9.7389-3.0964 0.53823 1.6554 0.26027 1.4924 0.55966 2.573-0.28608 0.0355-0.55748 0.0737-0.82683 0.11214-0.31632-3.8885-1.4287-8.502-1.2914-12.323 0.24432-4.8895 2.3986-7.3326 2.1709-11.992 0.12213-0.07496 0.20823-0.15982 0.25321-0.25528 0.70905-1.5048-11.459-3.1782-15.724-3.1042z" fill="#2e374f"/></g></svg>
