<?xml version="1.0" encoding="UTF-8"?>
<svg width="146.95mm" height="172.99mm" version="1.1" viewBox="0 0 146.95 172.99" xmlns="http://www.w3.org/2000/svg"><g transform="translate(-41.311 -95.971)"><g transform="matrix(.95613 .25748 -.29294 .84039 66.604 3.7501)"><g transform="matrix(.96941 .105 -.098583 .91017 -9.5989 110.83)"><g><path d="m81.017 69.792c-0.63506-0.28303-0.6058-0.17709-1.378-1.2713-5.8526-2.8255-12.866-8.3094-13.04-10.423-0.046866-0.54826-4.6319-5.8312-6.7967-7.5989l-4.1977-1.421c-2.2064-1.2904-6.2821-1.4416-7.714-1.7826s-4.9774-6.7094-5.2656-7.0589-4.4336-1.5327-4.8783-1.5205c-0.44464 0.01219-3.8232 0.23287-3.9636-0.13628s3.6968-0.86837 3.9524-0.86837c1.0338 0.66752 4.8479 1.8455 5.1613 2.0684 0.38943 0.30023 4.5356 6.6902 5.5575 6.9504 1.0219 0.26016 6.4264 1.2748 7.5351 1.1576-0.7035-0.91841-4.3046-2.0111-6.0788-2.5088-1.1969-2.4169-4.1043-6.0997-5.1636-7.0208-1.3935-1.1102-4.048-1.8556-5.8557-2.649-1.8077-0.79346-6.8532-4.469-6.515-4.7407s4.7087 2.7638 7.184 3.9044c1.1893 0.54796 5.5699 1.9656 6.0281 2.3868 0.45818 0.42118 3.3663 5.0747 5.4003 7.4122 1.0213 0.61651 2.9338 1.8954 5.6798 2.0226-5.4303-3.2633-9.5845-10.214-10.043-11.757-0.45853-1.5432-3.3859-9.5765-2.1128-10.09 0.39033-0.05676 2.755 8.0983 2.9637 9.1966s4.716 9.3312 10.001 11.651c-1.4152-3.9916-2.8889-9.3354-3.5829-13.45-0.25691-1.3776 1.8223-8.2757 2.3569-8.9378 0.50064 0.30811 0.19646 3.4869-0.15842 4.2134-0.35488 0.72651-1.1849 1.9248-1.1265 4.8043 0.05841 2.8795 2.3798 11.48 3.2778 12.922 0.89806 1.4424 7.0137 6.0758 7.1532 7.129 0.13952 1.0532 2.1718 5.8038 2.9188 6.4934s6.4132 7.0329 13.535 9.2322c8.5996 3.8607 24.701 10.737 24.701 10.737s0.17715 0.93319-0.14081 0.81491c-7.7132-2.1821-22.141-9.3037-23.217-9.5124-1.0759-0.20874-1.5426-0.06501-2.1777-0.34804z" fill="#4e3e17"/><path d="m81.507 69.289c-0.63506-0.28304-0.69934-0.17709-1.4716-1.2713-5.8526-2.8255-12.866-8.3094-13.04-10.423-0.04687-0.54826-4.2351-8.4109-8.0534-8.5911-3.5944-0.68332-6.3966-1.1264-10.655-2.0791-1.4319-0.34095-5.3743-6.7094-5.6625-7.0589-0.28815-0.34945-4.3408-1.4078-4.7854-1.3956-0.44464 0.01219-3.5426 0.39657-3.6829 0.02743-0.14032-0.36914 3.2993-0.68128 3.5548-0.68128 1.0338 0.66752 4.8713 1.752 5.1847 1.9749 0.38943 0.30023 4.3378 6.771 5.3597 7.0312 1.0219 0.26016 6.8233 1.0102 8.9241 1.6868-0.24048-1.4476-5.363-2.871-7.1371-3.3687-1.1969-2.4169-3.8397-6.3643-4.899-7.2854-1.3935-1.1102-4.048-1.8556-5.8557-2.649-1.8077-0.79346-5.9271-3.1461-5.5889-3.4178s3.1212 2.0362 5.5965 3.1767c1.1893 0.54796 5.636 2.0979 6.0942 2.5191 0.45818 0.42118 3.4324 5.0747 5.4665 7.4122 1.0213 0.61651 4.9182 2.0938 7.6642 2.221-6.7532-3.7263-10.114-10.016-11.035-11.559s-3.915-9.4442-2.9727-10.354c0.72106 1.0016 1.4321 5.717 2.7653 8.8658 1.3332 3.1488 5.642 9.8603 10.927 12.18-1.5475-3.9255-3.5503-9.3354-3.9136-14.112-0.3892-2.2375 1.1609-6.4897 1.6955-7.1519 0.50064 0.30811 0.19646 1.7671-0.15842 2.4936-0.35488 0.72651-1.1849 3.2477-1.0603 5.3335 0.12456 2.0857 2.5121 11.083 3.4101 12.525 0.89806 1.4424 6.8687 5.9015 7.0082 6.9546 0.13952 1.0532 2.2653 5.8973 3.0124 6.5869 0.74704 0.68958 6.5068 7.22 13.628 9.4193 8.7867 3.7204 24.841 10.69 24.841 10.69s0.0836 0.65256-0.23436 0.53428c-6.4503-2.7901-15.546-7.1054-22.889-9.9334-0.79528-0.20874-1.4023-0.01824-2.0374-0.30127z" fill="#876a07"/></g></g></g><g transform="matrix(-.79236 .56829 .53356 .74394 194.44 64.157)"><g><path d="m81.017 69.792c-0.63506-0.28303-0.6058-0.17709-1.378-1.2713-5.8526-2.8255-12.866-8.3094-13.04-10.423-0.046866-0.54826-4.6319-5.8312-6.7967-7.5989l-4.1977-1.421c-2.2064-1.2904-6.2821-1.4416-7.714-1.7826s-4.9774-6.7094-5.2656-7.0589-4.4336-1.5327-4.8783-1.5205c-0.44464 0.01219-3.8232 0.23287-3.9636-0.13628s3.6968-0.86837 3.9524-0.86837c1.0338 0.66752 4.8479 1.8455 5.1613 2.0684 0.38943 0.30023 4.5356 6.6902 5.5575 6.9504 1.0219 0.26016 6.4264 1.2748 7.5351 1.1576-0.7035-0.91841-4.3046-2.0111-6.0788-2.5088-1.1969-2.4169-4.1043-6.0997-5.1636-7.0208-1.3935-1.1102-4.048-1.8556-5.8557-2.649-1.8077-0.79346-6.8532-4.469-6.515-4.7407s4.7087 2.7638 7.184 3.9044c1.1893 0.54796 5.5699 1.9656 6.0281 2.3868 0.45818 0.42118 3.3663 5.0747 5.4003 7.4122 1.0213 0.61651 2.9338 1.8954 5.6798 2.0226-5.4303-3.2633-9.5845-10.214-10.043-11.757-0.45853-1.5432-3.3859-9.5765-2.1128-10.09 0.39033-0.05676 2.755 8.0983 2.9637 9.1966s4.716 9.3312 10.001 11.651c-1.4152-3.9916-2.8889-9.3354-3.5829-13.45-0.25691-1.3776 1.8223-8.2757 2.3569-8.9378 0.50064 0.30811 0.19646 3.4869-0.15842 4.2134-0.35488 0.72651-1.1849 1.9248-1.1265 4.8043 0.05841 2.8795 2.3798 11.48 3.2778 12.922 0.89806 1.4424 7.0137 6.0758 7.1532 7.129 0.13952 1.0532 2.1718 5.8038 2.9188 6.4934s6.4132 7.0329 13.535 9.2322c8.5996 3.8607 24.701 10.737 24.701 10.737s0.17715 0.93319-0.14081 0.81491c-7.7132-2.1821-22.141-9.3037-23.217-9.5124-1.0759-0.20874-1.5426-0.06501-2.1777-0.34804z" fill="#4e3e17"/><path d="m81.507 69.289c-0.63506-0.28304-0.69934-0.17709-1.4716-1.2713-5.8526-2.8255-12.866-8.3094-13.04-10.423-0.04687-0.54826-4.2351-8.4109-8.0534-8.5911-3.5944-0.68332-6.3966-1.1264-10.655-2.0791-1.4319-0.34095-5.3743-6.7094-5.6625-7.0589-0.28815-0.34945-4.3408-1.4078-4.7854-1.3956-0.44464 0.01219-3.5426 0.39657-3.6829 0.02743-0.14032-0.36914 3.2993-0.68128 3.5548-0.68128 1.0338 0.66752 4.8713 1.752 5.1847 1.9749 0.38943 0.30023 4.3378 6.771 5.3597 7.0312 1.0219 0.26016 6.8233 1.0102 8.9241 1.6868-0.24048-1.4476-5.363-2.871-7.1371-3.3687-1.1969-2.4169-3.8397-6.3643-4.899-7.2854-1.3935-1.1102-4.048-1.8556-5.8557-2.649-1.8077-0.79346-5.9271-3.1461-5.5889-3.4178s3.1212 2.0362 5.5965 3.1767c1.1893 0.54796 5.636 2.0979 6.0942 2.5191 0.45818 0.42118 3.4324 5.0747 5.4665 7.4122 1.0213 0.61651 4.9182 2.0938 7.6642 2.221-6.7532-3.7263-10.114-10.016-11.035-11.559s-3.915-9.4442-2.9727-10.354c0.72106 1.0016 1.4321 5.717 2.7653 8.8658 1.3332 3.1488 5.642 9.8603 10.927 12.18-1.5475-3.9255-3.5503-9.3354-3.9136-14.112-0.3892-2.2375 1.1609-6.4897 1.6955-7.1519 0.50064 0.30811 0.19646 1.7671-0.15842 2.4936-0.35488 0.72651-1.1849 3.2477-1.0603 5.3335 0.12456 2.0857 2.5121 11.083 3.4101 12.525 0.89806 1.4424 6.8687 5.9015 7.0082 6.9546 0.13952 1.0532 2.2653 5.8973 3.0124 6.5869 0.74704 0.68958 6.5068 7.22 13.628 9.4193 8.7867 3.7204 24.841 10.69 24.841 10.69s0.0836 0.65256-0.23436 0.53428c-6.4503-2.7901-15.546-7.1054-22.889-9.9334-0.79528-0.20874-1.4023-0.01824-2.0374-0.30127z" fill="#876a07"/></g></g></g></svg>
