<?xml version="1.0" encoding="UTF-8"?>
<svg width="146.95mm" height="172.99mm" version="1.1" viewBox="0 0 146.95 172.99" xmlns="http://www.w3.org/2000/svg"><g transform="translate(-41.311 -95.971)"><g transform="translate(19.706 33.247)"><path d="m70.963 235.71c-17.012-1.2775-24.25-7.8567-24.359-22.142-0.04209-5.5155 0.57408-8.0723 3.1165-12.932 3.6279-6.9344 11.015-12.846 20.744-16.6 16.696-6.4436 46.035-6.9195 64.644-1.0486 15.992 5.0452 24.522 16.415 23.636 31.501-0.64736 11.018-7.1827 17.108-21.23 19.783-2.3529 0.44802-8.9946 1.5359-16.036 1.0221-24.457-1.7845-47.897 0.61312-50.514 0.41663z" fill="#cbd8e1"/><path d="m79.048 228.84c-11.771-3.4872-19.593-5.5612-25.568-17.519-5.5153-16.131 6.4779-21.668 16.579-25.862 20.474-7.4797 45.584-8.4483 65.056-2.0253 13.975 4.6096 24.107 14.969 23.332 31.934-4.278 17.981-16.35 10.617-30.436 10.955-14.369 0.32252-36.063 6.3402-48.964 2.5181z" fill="#f9fbfb"/></g></g></svg>
