<?xml version="1.0" encoding="UTF-8"?>
<svg width="146.95mm" height="172.99mm" version="1.1" viewBox="0 0 146.95 172.99" xmlns="http://www.w3.org/2000/svg"><g transform="translate(-41.311 -95.971)"><path d="m117.28 146.35c-1.2078 1.2856-9.2622 2.3848-10.465 0.20626-1.2028-2.1785-0.98248-4.1357 2.3623-4.8034 4.7799-0.95424 6.9221 1.0137 11.035 2.04s5.8809-3.5133 11.969-2.3615c6.0881 1.1517 1.6154 5.8368 0.0386 6.4332-2.8039 1.0606-7.2758-1.9188-9.4943-3.548-3.6158-0.44205-4.2378 0.74795-5.4456 2.0335z" fill="#cbd8e1"/><path d="m106.98 144.56c0.1073-1.4743 2.1908-2.1176 4.8866-2.1388 3.5264 0.0148 4.6827 1.2759 4.5912 2.2309 0.0197 1.2769-2.3927 1.9109-5.1154 1.8583-2.753-0.0114-4.3066-0.70363-4.3624-1.9504z" fill="#0d1014"/><path d="m114.2 144.07c-0.40494-0.20215-0.64758-0.32288-1.4274-0.40289-0.77983-0.08-2.4668 9e-3 -2.635-0.3577-0.16826-0.36648 0.55723-0.62312 1.6264-0.60772 1.0692 0.0154 1.6548 0.11971 2.3604 0.33381 0.70554 0.21411 1.0461 0.32777 1.3928 0.71121 0.34675 0.38343 0.21699 0.58293-0.22785 0.62806-0.44485 0.0452-0.89586-0.2085-1.0893-0.30477z" fill="#4c5e76"/><g transform="matrix(.32337 0 0 .41119 79.162 85.485)"><path d="m110.62 188.15c0.15684-2.9515 3.2021-4.2394 7.1421-4.2818 5.1541 0.0297 6.8442 2.5543 6.7104 4.4662 0.0289 2.5563-3.4972 3.8255-7.4765 3.7203-4.0237-0.0229-6.2944-1.4086-6.376-3.9047z" fill="#cbd8e1"/><path d="m111.1 187.27c0.15554-2.9515 3.1757-4.2394 7.0832-4.2818 5.1116 0.0297 6.7877 2.5543 6.6551 4.4662 0.0286 2.5563-3.4683 3.8255-7.4149 3.7203-3.9905-0.0229-6.2425-1.4086-6.3235-3.9047z" fill="#0d1014"/><path d="m121.57 186.29c-0.58696-0.40468-0.93868-0.64639-2.0691-0.80657-1.1304-0.16017-3.5756 0.0176-3.8196-0.71609-0.2439-0.73368 0.80772-1.2475 2.3575-1.2166 1.5498 0.0308 2.3987 0.23966 3.4214 0.66829s1.5163 0.65618 2.019 1.4238c0.50263 0.76762 0.31454 1.167-0.33027 1.2574-0.64482 0.0904-1.2986-0.41741-1.579-0.61015z" fill="#4c5e76"/></g><g transform="matrix(.39855 0 0 .38175 76.458 90.605)"><path d="m110.62 188.15c0.15684-2.9515 3.2021-4.2394 7.1421-4.2818 5.1541 0.0297 6.8442 2.5543 6.7104 4.4662 0.0289 2.5563-3.4972 3.8255-7.4765 3.7203-4.0237-0.0229-6.2944-1.4086-6.376-3.9047z" fill="#cbd8e1"/><path d="m111.1 187.27c0.15554-2.9515 3.1757-4.2394 7.0832-4.2818 5.1116 0.0297 6.7877 2.5543 6.6551 4.4662 0.0286 2.5563-3.4683 3.8255-7.4149 3.7203-3.9905-0.0229-6.2425-1.4086-6.3235-3.9047z" fill="#0d1014"/><path d="m121.57 186.29c-0.58696-0.40468-0.93868-0.64639-2.0691-0.80657-1.1304-0.16017-3.5756 0.0176-3.8196-0.71609-0.2439-0.73368 0.80772-1.2475 2.3575-1.2166 1.5498 0.0308 2.3987 0.23966 3.4214 0.66829s1.5163 0.65618 2.019 1.4238c0.50263 0.76762 0.31454 1.167-0.33027 1.2574-0.64482 0.0904-1.2986-0.41741-1.579-0.61015z" fill="#4c5e76"/></g><g transform="matrix(.32337 0 0 .51423 91.189 64.225)"><path d="m110.62 188.15c0.15684-2.9515 3.2021-4.2394 7.1421-4.2818 5.1541 0.0297 6.8442 2.5543 6.7104 4.4662 0.0289 2.5563-3.4972 3.8255-7.4765 3.7203-4.0237-0.0229-6.2944-1.4086-6.376-3.9047z" fill="#cbd8e1"/><path d="m111.1 187.27c0.15554-2.9515 3.1757-4.2394 7.0832-4.2818 5.1116 0.0297 6.7877 2.5543 6.6551 4.4662 0.0286 2.5563-3.4683 3.8255-7.4149 3.7203-3.9905-0.0229-6.2425-1.4086-6.3235-3.9047z" fill="#0d1014"/><path d="m121.57 186.29c-0.58696-0.40468-0.93868-0.64639-2.0691-0.80657-1.1304-0.16017-3.5756 0.0176-3.8196-0.71609-0.2439-0.73368 0.80772-1.2475 2.3575-1.2166 1.5498 0.0308 2.3987 0.23966 3.4214 0.66829s1.5163 0.65618 2.019 1.4238c0.50263 0.76762 0.31454 1.167-0.33027 1.2574-0.64482 0.0904-1.2986-0.41741-1.579-0.61015z" fill="#4c5e76"/></g><g transform="matrix(.2388 0 0 .38175 83.841 88.868)"><path d="m110.62 188.15c0.15684-2.9515 3.2021-4.2394 7.1421-4.2818 5.1541 0.0297 6.8442 2.5543 6.7104 4.4662 0.0289 2.5563-3.4972 3.8255-7.4765 3.7203-4.0237-0.0229-6.2944-1.4086-6.376-3.9047z" fill="#cbd8e1"/><path d="m111.1 187.27c0.15554-2.9515 3.1757-4.2394 7.0832-4.2818 5.1116 0.0297 6.7877 2.5543 6.6551 4.4662 0.0286 2.5563-3.4683 3.8255-7.4149 3.7203-3.9905-0.0229-6.2425-1.4086-6.3235-3.9047z" fill="#0d1014"/><path d="m121.57 186.29c-0.58696-0.40468-0.93868-0.64639-2.0691-0.80657-1.1304-0.16017-3.5756 0.0176-3.8196-0.71609-0.2439-0.73368 0.80772-1.2475 2.3575-1.2166 1.5498 0.0308 2.3987 0.23966 3.4214 0.66829s1.5163 0.65618 2.019 1.4238c0.50263 0.76762 0.31454 1.167-0.33027 1.2574-0.64482 0.0904-1.2986-0.41741-1.579-0.61015z" fill="#4c5e76"/></g><g transform="matrix(.24819 0 0 .29343 103.92 102.62)"><path d="m110.62 188.15c0.15684-2.9515 3.2021-4.2394 7.1421-4.2818 5.1541 0.0297 6.8442 2.5543 6.7104 4.4662 0.0289 2.5563-3.4972 3.8255-7.4765 3.7203-4.0237-0.0229-6.2944-1.4086-6.376-3.9047z" fill="#cbd8e1"/><path d="m111.1 187.27c0.15554-2.9515 3.1757-4.2394 7.0832-4.2818 5.1116 0.0297 6.7877 2.5543 6.6551 4.4662 0.0286 2.5563-3.4683 3.8255-7.4149 3.7203-3.9905-0.0229-6.2425-1.4086-6.3235-3.9047z" fill="#0d1014"/><path d="m121.57 186.29c-0.58696-0.40468-0.93868-0.64639-2.0691-0.80657-1.1304-0.16017-3.5756 0.0176-3.8196-0.71609-0.2439-0.73368 0.80772-1.2475 2.3575-1.2166 1.5498 0.0308 2.3987 0.23966 3.4214 0.66829s1.5163 0.65618 2.019 1.4238c0.50263 0.76762 0.31454 1.167-0.33027 1.2574-0.64482 0.0904-1.2986-0.41741-1.579-0.61015z" fill="#4c5e76"/></g><g transform="matrix(.25759 0 0 .36703 77.753 89.691)"><path d="m110.62 188.15c0.15684-2.9515 3.2021-4.2394 7.1421-4.2818 5.1541 0.0297 6.8442 2.5543 6.7104 4.4662 0.0289 2.5563-3.4972 3.8255-7.4765 3.7203-4.0237-0.0229-6.2944-1.4086-6.376-3.9047z" fill="#cbd8e1"/><path d="m111.1 187.27c0.15554-2.9515 3.1757-4.2394 7.0832-4.2818 5.1116 0.0297 6.7877 2.5543 6.6551 4.4662 0.0286 2.5563-3.4683 3.8255-7.4149 3.7203-3.9905-0.0229-6.2425-1.4086-6.3235-3.9047z" fill="#0d1014"/><path d="m121.57 186.29c-0.58696-0.40468-0.93868-0.64639-2.0691-0.80657-1.1304-0.16017-3.5756 0.0176-3.8196-0.71609-0.2439-0.73368 0.80772-1.2475 2.3575-1.2166 1.5498 0.0308 2.3987 0.23966 3.4214 0.66829s1.5163 0.65618 2.019 1.4238c0.50263 0.76762 0.31454 1.167-0.33027 1.2574-0.64482 0.0904-1.2986-0.41741-1.579-0.61015z" fill="#4c5e76"/></g><g transform="translate(-.23142 1.6971)"><path d="m117.72 151.65c-0.86762-2.0653-2.0136-1.7718-1.9393-3.9522 0.0743-2.1803 1.2212-3.4313 3.9181-3.6396 2.6969-0.20827 4.8467 1.3801 4.8633 3.7612s-1.1754 2.7853-2.2803 4.1403c-1.1049 1.355-3.051 4.6157-4.2627 4.1236s0.56856-2.3681-0.29906-4.4334z" fill="#cbd8e1"/><path d="m118.86 151.05c-0.86762-2.0653-2.372-1.0173-2.2977-3.5985 0.0743-2.5812 1.288-3.565 4.1185-3.506s4.1785 0.91234 4.1951 3.2935-0.75017 1.7931-1.6661 3.5734c-0.91593 1.7802-0.96542 5.0376-2.2406 5.0294-1.2752-8e-3 -1.2416-2.7265-2.1093-4.7918z" fill="#e39f20"/><path d="m119.64 149.44c-0.54472-0.51748-0.57392-0.6567-0.85965-0.9782-0.13174-0.14823 2.1217-1.5392 3.4625-0.84699-0.0765-0.96661-2.9865-0.54773-3.8299 0.4484-0.30888-0.41505-0.3793-0.91806-0.37179-1.3245 1.2643-0.75387 2.5736-1.2536 4.2552-0.73581-0.59486-1.2974-3.6018-0.14362-4.235 0.30236 0.10584-1.6149 1.2664-2.2453 3.2464-2.1863 1.9801 0.059 3.4756 0.71359 3.4922 3.0948 0.0141 2.0176-0.80003 1.8916-1.5388 2.8418-0.22762-0.36991-0.59979-0.58267-0.59979-0.58267s0.28227 0.62019 0.45465 1.0065c-0.31296 0.95882-0.82099 2.4605-1.0519 3.6398-0.13544 0.69178-0.58238 0.90707-0.85586 1.1949-0.18664 0.19643-0.93186-2.1033-0.91663-3.5713 0.85253-0.11394 1.2344-0.16152 1.62-0.55471-0.62713-0.14944-1.061-0.10298-1.6142 0.19491-0.0755-0.49137-0.23534-0.8635-0.27148-1.2025 0.6511-0.40226 1.2779-0.76304 2.1474-0.83362-0.4995-0.61185-1.7398-0.46103-2.5334 0.0932z" fill="#fdd476"/></g><path d="m127.06 144.47c0.0795-1.9088 1.6238-2.7416 3.6218-2.7691 2.6137 0.0192 3.4707 1.6519 3.4029 2.8883 0.0146 1.6532-1.7734 2.474-3.7914 2.406-2.0405-0.0148-3.192-0.91099-3.2334-2.5252z" fill="#0d1014"/><path d="m132.41 143.84c-0.30012-0.26171-0.47997-0.41803-1.058-0.52162-0.578-0.10358-1.8283 0.0114-1.953-0.4631-0.12471-0.47448 0.41301-0.80676 1.2054-0.78682 0.79243 0.0199 1.2265 0.15499 1.7495 0.43219 0.52293 0.2772 0.77533 0.42436 1.0323 0.92079 0.257 0.49643 0.16083 0.75472-0.16888 0.81315-0.32971 0.0585-0.66399-0.26994-0.80736-0.39459z" fill="#4c5e76"/></g></svg>
