<?xml version="1.0" encoding="UTF-8"?>
<svg width="146.95mm" height="172.99mm" version="1.1" viewBox="0 0 146.95 172.99" xmlns="http://www.w3.org/2000/svg"><g transform="translate(-41.311 -95.971)"><path d="m106.99 172.58c-2.9659-2.8272-5.3814-5.8829-10.065-12.049-5.1391-8.6576-2.1708-29.095 8.8647-36.305 9.5087-6.1366 19.045-7.7411 28.419-0.6403 8.1031 6.1384 13.783 27.184 9.0496 34.858-4.3618 7.0717-5.8451 9.1281-9.5103 13.976-5.0515 1.8321-5.9913 1.079-12.362 1.0962-6.0689 0.0163-6.571 0.49277-14.396-0.93672z" fill="#cbd8e1"/><path d="m111.17 166.39c-5.6838 0.0142-13.247-4.6592-12.797-19.395 0.45017-14.736 5.7802-19.746 10.373-23.348 6.9019-5.4798 16.053-5.6447 23.91-0.79472 6.605 4.0772 13.107 19.472 11.621 29.887-1.9888 7.1291-7.9393 14.789-10.779 15.457-6.5333 0.27703-5.9615-2.6212-10.951-2.5618-4.9898 0.0594-5.6932 0.74176-11.377 0.756z" fill="#f9fbfb"/></g></svg>
